<svg xmlns="http://www.w3.org/2000/svg" viewBox="0 0 512 512" style="height: 512px; width: 512px;"><defs><filter id="shadow-1" height="300%" width="300%" x="-100%" y="-100%"><feFlood flood-color="rgba(0, 255, 255, 1)" result="flood"></feFlood><feComposite in="flood" in2="SourceGraphic" operator="atop" result="composite"></feComposite><feGaussianBlur in="composite" stdDeviation="15" result="blur"></feGaussianBlur><feOffset dx="0" dy="0" result="offset"></feOffset><feComposite in="SourceGraphic" in2="offset" operator="over"></feComposite></filter></defs><path d="M0 0h512v512H0z" fill="#50e3c2" fill-opacity="0"></path><g class="" transform="translate(1,0)" style=""><path d="M201 16c-15 0-20 3.38-20 20v15h-45c-29.547 0-35 5.453-35 35v375c0 29.547 5.453 35 35 35h240c29.547 0 35-5.453 35-35V86c0-29.547-5.453-35-35-35h-45V36c0-16.62-5-20-20-20H201zm-48.094 69.813c4.666.02 10.594.187 18.094.187h170c40 0 35-5 35 35v305c0 40 5 35-35 35H171c-40 0-35 5-35-35V121c0-32.5-3.31-35.283 16.906-35.188zM231 176c-5.54 0-10 4.46-10 10v50h-50c-5.54 0-10 4.46-10 10v50c0 5.54 4.46 10 10 10h50v50c0 5.54 4.46 10 10 10h50c5.54 0 10-4.46 10-10v-50h50c5.54 0 10-4.46 10-10v-50c0-5.54-4.46-10-10-10h-50v-50c0-5.54-4.46-10-10-10h-50z" fill="#00ffff" fill-opacity="1" filter="url(#shadow-1)"></path></g></svg>